<svg xmlns="http://www.w3.org/2000/svg" viewBox="0 0 512 512" role="img" aria-label="船舶装备故障诊断智能问答系统 Logo">
  <defs>
    <linearGradient id="bg" x1="64" y1="48" x2="448" y2="464" gradientUnits="userSpaceOnUse">
      <stop offset="0" stop-color="#0b2f4f"/>
      <stop offset="0.58" stop-color="#155b8a"/>
      <stop offset="1" stop-color="#1aa3b8"/>
    </linearGradient>
    <linearGradient id="accent" x1="124" y1="310" x2="390" y2="310" gradientUnits="userSpaceOnUse">
      <stop offset="0" stop-color="#ffd166"/>
      <stop offset="1" stop-color="#ff8c42"/>
    </linearGradient>
    <filter id="softGlow" x="-20%" y="-20%" width="140%" height="140%">
      <feGaussianBlur stdDeviation="6" result="blur"/>
      <feMerge>
        <feMergeNode in="blur"/>
        <feMergeNode in="SourceGraphic"/>
      </feMerge>
    </filter>
  </defs>

  <circle cx="256" cy="256" r="224" fill="url(#bg)"/>
  <circle cx="256" cy="256" r="208" fill="none" stroke="#b6ecff" stroke-opacity="0.38" stroke-width="4"/>
  <circle cx="256" cy="256" r="184" fill="none" stroke="#ffffff" stroke-opacity="0.12" stroke-width="2" stroke-dasharray="6 10"/>

  <path d="M118 354c26-20 58-30 96-30 17 0 35 2 53 7 20 5 38 8 57 8 35 0 66-11 93-31 8-6 19-4 24 4 5 8 3 19-4 24-33 24-71 37-113 37-22 0-43-3-64-9-15-4-30-6-46-6-30 0-55 8-76 24-8 6-19 4-24-4-5-8-4-19 4-24Z" fill="#7fe7ff" fill-opacity="0.9"/>
  <path d="M145 385c19-13 40-20 64-20 14 0 28 2 43 6 18 5 37 8 55 8 30 0 59-8 85-24 8-5 19-2 24 6 5 8 3 19-6 24-32 19-66 28-103 28-21 0-42-3-62-8-12-4-24-5-36-5-18 0-34 5-48 14-8 5-19 3-24-5-5-8-3-19 8-24Z" fill="#d7fbff" fill-opacity="0.78"/>

  <path d="M159 282h194l-23 43c-6 12-18 19-31 19H213c-13 0-25-7-31-19l-23-43Z" fill="#ffffff"/>
  <path d="M215 230h82c13 0 25 7 31 19l16 33H168l16-33c6-12 18-19 31-19Z" fill="#d8f5ff"/>
  <rect x="241" y="176" width="30" height="54" rx="8" fill="#ffffff"/>
  <path d="M271 185h38c9 0 16 7 16 16v24h-54v-40Z" fill="#9fe7ff"/>
  <circle cx="201" cy="301" r="7" fill="#0b2f4f" fill-opacity="0.28"/>
  <circle cx="311" cy="301" r="7" fill="#0b2f4f" fill-opacity="0.28"/>

  <path d="M122 278h46l24-24 24 38 26-54 23 35h29l23-43 28 48h47" fill="none" stroke="url(#accent)" stroke-width="14" stroke-linecap="round" stroke-linejoin="round" filter="url(#softGlow)"/>

  <g transform="translate(336 120)">
    <circle cx="0" cy="0" r="24" fill="#ffb347"/>
    <g fill="#0b2f4f">
      <rect x="-5" y="-42" width="10" height="18" rx="4"/>
      <rect x="-5" y="24" width="10" height="18" rx="4"/>
      <rect x="24" y="-5" width="18" height="10" rx="4"/>
      <rect x="-42" y="-5" width="18" height="10" rx="4"/>
      <rect x="19" y="-31" width="10" height="18" rx="4" transform="rotate(45 24 -22)"/>
      <rect x="-29" y="13" width="10" height="18" rx="4" transform="rotate(45 -24 22)"/>
      <rect x="13" y="19" width="18" height="10" rx="4" transform="rotate(45 22 24)"/>
      <rect x="-31" y="-29" width="18" height="10" rx="4" transform="rotate(45 -22 -24)"/>
    </g>
    <circle cx="0" cy="0" r="12" fill="#fff5da"/>
    <circle cx="0" cy="0" r="5" fill="#ffb347"/>
  </g>

  <path d="M171 145c14-15 34-24 56-24 30 0 56 17 69 42" fill="none" stroke="#c8f6ff" stroke-width="10" stroke-linecap="round" stroke-opacity="0.95"/>
  <path d="M152 126c20-23 49-37 82-37 43 0 80 22 102 56" fill="none" stroke="#7fe7ff" stroke-width="8" stroke-linecap="round" stroke-opacity="0.65"/>
</svg>
