<svg xmlns="http://www.w3.org/2000/svg" xml:space="preserve" width="1373" height="1373" overflow="hidden"><defs><linearGradient id="a" x1="-27.506" x2="623.615" y1="-45.654" y2="623.69" gradientUnits="userSpaceOnUse" spreadMethod="reflect"><stop offset="0" stop-color="#79ADDD"/><stop offset=".97" stop-color="#3B87CD"/><stop offset="1" stop-color="#3B87CD"/></linearGradient><linearGradient id="b" x1="-32.039" x2="613.35" y1="-40.983" y2="604.406" gradientUnits="userSpaceOnUse" spreadMethod="reflect"><stop offset="0" stop-color="#3B87CD"/><stop offset=".016" stop-color="#3C88CD"/><stop offset=".033" stop-color="#3E89CD"/><stop offset=".049" stop-color="#408ACE"/><stop offset=".066" stop-color="#428BCE"/><stop offset=".082" stop-color="#448CCF"/><stop offset=".098" stop-color="#458DCF"/><stop offset=".115" stop-color="#478ED0"/><stop offset=".131" stop-color="#498FD0"/><stop offset=".148" stop-color="#4B90D1"/><stop offset=".164" stop-color="#4C91D1"/><stop offset=".18" stop-color="#4E92D1"/><stop offset=".197" stop-color="#4F93D2"/><stop offset=".213" stop-color="#5194D2"/><stop offset=".23" stop-color="#5295D3"/><stop offset=".246" stop-color="#5496D3"/><stop offset=".262" stop-color="#5597D3"/><stop offset=".279" stop-color="#5798D4"/><stop offset=".295" stop-color="#5899D4"/><stop offset=".311" stop-color="#5A9AD5"/><stop offset=".328" stop-color="#5B9AD5"/><stop offset=".344" stop-color="#5C9BD5"/><stop offset=".361" stop-color="#5E9CD6"/><stop offset=".377" stop-color="#5F9DD6"/><stop offset=".393" stop-color="#609ED6"/><stop offset=".41" stop-color="#619ED7"/><stop offset=".426" stop-color="#639FD7"/><stop offset=".443" stop-color="#64A0D7"/><stop offset=".459" stop-color="#65A0D7"/><stop offset=".475" stop-color="#66A1D8"/><stop offset=".492" stop-color="#67A2D8"/><stop offset=".508" stop-color="#68A2D8"/><stop offset=".525" stop-color="#69A3D9"/><stop offset=".541" stop-color="#6AA4D9"/><stop offset=".557" stop-color="#6BA4D9"/><stop offset=".574" stop-color="#6CA5D9"/><stop offset=".59" stop-color="#6DA5D9"/><stop offset=".607" stop-color="#6EA6DA"/><stop offset=".623" stop-color="#6FA6DA"/><stop offset=".639" stop-color="#6FA7DA"/><stop offset=".656" stop-color="#70A7DA"/><stop offset=".672" stop-color="#71A8DB"/><stop offset=".689" stop-color="#72A8DB"/><stop offset=".705" stop-color="#72A9DB"/><stop offset=".721" stop-color="#73A9DB"/><stop offset=".738" stop-color="#73A9DB"/><stop offset=".754" stop-color="#74AADB"/><stop offset=".77" stop-color="#75AADB"/><stop offset=".787" stop-color="#75AADC"/><stop offset=".803" stop-color="#76ABDC"/><stop offset=".82" stop-color="#76ABDC"/><stop offset=".836" stop-color="#76ABDC"/><stop offset=".852" stop-color="#77ABDC"/><stop offset=".869" stop-color="#77ACDC"/><stop offset=".885" stop-color="#77ACDC"/><stop offset=".902" stop-color="#78ACDC"/><stop offset=".918" stop-color="#78ACDC"/><stop offset=".934" stop-color="#78ACDC"/><stop offset=".951" stop-color="#78ACDC"/><stop offset=".967" stop-color="#78ACDC"/><stop offset=".984" stop-color="#78ACDC"/><stop offset="1" stop-color="#79ADDD"/></linearGradient><linearGradient id="c" x1="-27.5" x2="332.493" y1="-37.268" y2="332.79" gradientUnits="userSpaceOnUse" spreadMethod="reflect"><stop offset="0" stop-color="#82E1E6"/><stop offset=".97" stop-color="#32BADA"/><stop offset="1" stop-color="#32BADA"/></linearGradient><linearGradient id="d" x1="-27.277" x2="332.716" y1="-37.489" y2="332.569" gradientUnits="userSpaceOnUse" spreadMethod="reflect"><stop offset="0" stop-color="#35CFD7"/><stop offset=".97" stop-color="#32BADA"/><stop offset="1" stop-color="#32BADA"/></linearGradient><linearGradient id="e" x1="1605.14" x2="1408.97" y1="1350.39" y2="929.709" gradientUnits="userSpaceOnUse" spreadMethod="reflect"><stop offset="0" stop-color="#BDD7EE"/><stop offset=".16" stop-color="#63A0D7"/><stop offset=".58" stop-color="#255E91"/><stop offset="1" stop-color="#255E91"/></linearGradient></defs><path fill="none" stroke="url(#a)" stroke-linecap="square" stroke-miterlimit="8" stroke-width="73.333" d="M363.498 562.848 0 563C.665 251.875 260.582 0 580.975 0c-.421 163.139.042 298.658.025 388.548" transform="matrix(0 1 1 0 120.5 105.5)"/><path fill="none" stroke="url(#b)" stroke-linecap="square" stroke-miterlimit="8" stroke-width="73.333" d="M581.19.2C260.783.2.855 251.977.19 562.981l350.408.219V364.277H581.11l.018-94.511c.022-91.536.039-183.07.062-269.566Z" transform="matrix(0 -1 -1 0 1253.5 1267.5)"/><path fill="none" stroke="url(#c)" stroke-linecap="square" stroke-miterlimit="8" stroke-width="65.129" d="M.032 295.078C.38 132.156 136.814.26 304.99.26l-.064 282.43c.021 7.854.65 8.896-1.445 10.991-2.095 2.095-5.071 1.388-11.126 1.58L.032 295.078Z" transform="matrix(1 0 0 -1 182.5 1181.5)"/><path fill="none" stroke="url(#d)" stroke-linecap="square" stroke-miterlimit="8" stroke-width="65.129" d="M.255 294.858C.604 131.935 137.036.04 305.214.04c-.022 90.623-.043 191.806-.065 282.429.022 7.854.651 8.896-1.444 10.991-2.095 2.095-5.071 1.389-11.127 1.58L.255 294.858Z" transform="matrix(-1 0 0 1 1191.5 191.5)"/><path fill="url(#e)" fill-rule="evenodd" d="m1409.87 935.835 282.19 75.615c1.45.38 4.47.68 3.34 2.96l-21.5 80.23-33.76-9.04c-1.51-4.03-.7-9-1.11-13.25-1.68-14.95-3.45-31.49-12.7-43.29-7.57-10.32-19.98-14.16-31.56-17.26l-95.99-25.724 59.77 137.744 1.98 4.16-3.62 13.54-130.47 83.66c-6.38 4.51-13.47 7.79-19.01 13.04l135.55 36.32c11.22 2.49 24.41 3.43 34.81-2.59 12.72-6.95 19.15-21.28 25.67-34.04l36.05 10.18-30.45 86.63-4.17 9.76-292.8-78.45c2.39-5.06.95-13.21 7.3-15.66l165.16-107c1.22-.71 1.48-1.68.78-2.9l-80.51-185.786 5.05-18.849Z" transform="translate(-827 -468)"/></svg>