<svg xmlns="http://www.w3.org/2000/svg" xml:space="preserve" width="1964" height="1963" overflow="hidden"><path fill="#393C45" fill-rule="evenodd" stroke="#393C45" stroke-miterlimit="8" stroke-width="100.833" d="M1410.28 982c0 21.34-17.43 38.88-38.85 38.88h-349.98v350.22c0 21.34-17.53 38.97-38.95 38.97s-38.86-17.54-38.86-38.97v-350.22H593.57c-21.33 0-38.85-17.54-38.85-38.88 0-21.34 17.52-38.88 38.85-38.88h350.07V592.809c0-21.343 17.53-38.882 38.86-38.882s38.95 17.539 38.95 38.882V943.12h349.98c21.42 0 38.85 17.54 38.85 38.88m311.22 0c0 408.4-330.78 739.5-739 739.5s-739-331.01-739-739.5c0-408.493 330.78-739.5 739-739.5 408.12 0 739 331.007 739 739.5m-77.8 0c0-364.878-296.57-661.643-661.2-661.643-364.63 0-661.2 296.765-661.2 661.643 0 364.97 296.57 661.64 661.2 661.64 364.63 0 661.2-296.67 661.2-661.64"/></svg>