<svg xmlns="http://www.w3.org/2000/svg" xml:space="preserve" width="1964" height="1963" overflow="hidden"><path fill="none" stroke="#393C45" stroke-linecap="round" stroke-linejoin="round" stroke-miterlimit="10" stroke-width="126.042" d="M1609 1190.67c0 77.01-62.38 139.44-139.33 139.44h-836L355 1609V493.445C355 416.431 417.38 354 494.33 354h975.34c76.95 0 139.33 62.431 139.33 139.445Z"/><path fill="#393C45" fill-rule="evenodd" d="M906 843c0-41.97 34.03-76 76-76s76 34.03 76 76-34.03 76-76 76-76-34.03-76-76ZM1215 843c0-41.97 33.8-76 75.5-76s75.5 34.03 75.5 76-33.8 76-75.5 76-75.5-34.03-75.5-76ZM598 843c0-41.97 33.8-76 75.5-76s75.5 34.03 75.5 76-33.8 76-75.5 76-75.5-34.03-75.5-76Z"/></svg>