<svg xmlns="http://www.w3.org/2000/svg" xml:space="preserve" width="1964" height="1963" overflow="hidden"><path fill="#393C45" stroke="#4472C4" stroke-width="1.4" d="M245 95h482c27 0 38-8 36-36 0-20 1-39 3-59H218l-8 6c-85 30-102 54-102 144v1080c1 51 33 94 78 106 8 2 27-5 27-8 0-25-2-49-5-73-3-17-14-35-14-52V148c-1-50 3-53 51-53Zm1054 342c1-27-10-53-30-71l-27-26h-215v392l-99-105-67 72-31 32V339H392c-19 0-36-10-46-26-7-11-10-25-9-38-1-17 5-32 16-44 10-11 23-17 38-17h723l-33-32a89 89 0 0 0-55-23l-668-1h-13c-61 3-82 28-82 95 0 346 1 692-1 1038 0 52 7 94 61 116h922c49-23 54-63 54-112-2-286-1-572 0-858Zm-181 767a35 35 0 0 1-23 24c-6 2-12 2-18 2H476l-14-3c-6-3-11-8-15-14-6-10-6-23-1-34a34 34 0 0 1 25-19h614c6 0 11 1 15 4 6 2 10 7 14 12 5 8 6 18 4 28Zm-3-171a34 34 0 0 1-29 18H476c-11 0-22-6-28-16-7-11-7-24-2-35 5-10 15-17 25-19h614c5 0 10 1 15 4 6 3 10 7 14 12 6 11 7 24 1 35Zm-28-161c-5-2-11-3-17-3h-84c-7 0-13 1-18 3H476c-10 0-20-5-26-13-7-10-9-23-5-34 4-12 13-20 25-22l15-1h590c7-1 15 0 22 2 14 5 22 18 22 33 1 18-14 34-32 35Z" transform="translate(278 278)"/></svg>