<svg xmlns="http://www.w3.org/2000/svg" xml:space="preserve" width="1964" height="1963" overflow="hidden"><g fill-rule="evenodd"><path fill="#393C45" d="M429 982a553 553 0 1 1 1106 0 553 553 0 0 1-1106 0ZM881 150a101 101 0 0 1 202 0v128a101 101 0 0 1-202 0ZM881 1685a101 101 0 0 1 202 0v128a101 101 0 0 1-202 0ZM1498 322a101 101 0 0 1 143 143l-90 90a101 101 0 0 1-143-143ZM413 1408a101 101 0 0 1 143 143l-90 90a101 101 0 0 1-143-143ZM1813 880c56 0 101 45 101 102 0 56-45 101-101 101h-127a101 101 0 1 1 0-203ZM279 880c56 0 101 45 101 102 0 56-45 101-101 101H152a101 101 0 1 1 0-203Z"/><path fill="#393C45" d="M1641 1494a101 101 0 0 1-143 143l-90-90a101 101 0 0 1 143-143ZM556 408c40 40 40 104 0 144-40 39-104 39-143 0l-90-91a101 101 0 0 1 143-143Z"/><path fill="#FFF" d="M499 982a483 483 0 0 1 966 0"/></g></svg>