<svg xmlns="http://www.w3.org/2000/svg" xml:space="preserve" width="1964" height="1963" overflow="hidden"><g fill="#393C45" fill-rule="evenodd"><path d="M210 955c0-59 47-106 106-106h52c59 0 106 47 106 106v53c0 59-47 106-106 106h-52c-59 0-106-47-106-106ZM708 981c0-58 46-104 104-104h839c57 0 103 46 103 104 0 57-46 103-103 103H812c-58 0-104-46-104-103ZM210 1365c0-59 47-106 106-106h52c59 0 106 47 106 106v53c0 59-47 106-106 106h-52c-59 0-106-47-106-106ZM708 1391c0-58 46-104 104-104h839c57 0 103 46 103 104 0 57-46 103-103 103H812c-58 0-104-46-104-103ZM210 545c0-59 47-106 106-106h52c59 0 106 47 106 106v52c0 59-47 106-106 106h-52c-59 0-106-47-106-106ZM708 570c0-57 47-104 104-104h838a104 104 0 1 1 0 208H812c-57 0-104-47-104-104Z"/></g></svg>