<svg xmlns="http://www.w3.org/2000/svg" xml:space="preserve" width="1964" height="1964" overflow="hidden"><path fill="#393C45" fill-rule="evenodd" d="M507 644c30 0 58 2 84 8l-20 89h-58c-1-19-4-32-9-39-4-8-12-12-22-12-12 0-21 4-29 13-7 8-13 19-18 33-6 15-11 33-16 56l-11 49h96l-12 56h-96l-81 372c-16 73-41 126-76 161s-79 52-131 52c-13 0-23 0-31-2l11-50 16 1c17 0 31-9 42-28 11-18 21-46 29-84l96-422h-68l8-36c21 0 35-2 44-4 8-3 15-8 21-15 5-7 11-20 16-40 7-28 16-51 28-70a175 175 0 0 1 107-79c24-6 51-9 80-9Z"/><text x="269.9" y="1559.4" fill-opacity="0" font-family="Arial,Arial_MSFontService,sans-serif" font-size="838.5" transform="translate(-193 -182)">𝒇</text><path fill="#393C45" fill-rule="evenodd" d="m947 640 12 34c-69 23-121 67-154 134-34 66-50 150-50 250 0 104 16 189 50 257 33 67 84 112 153 135l-11 34c-87-22-154-72-200-147-46-76-69-167-69-275 0-107 23-198 69-274 47-76 113-125 200-148Z"/><text x="870.7" y="1560.9" fill-opacity="0" font-family="Arial,Arial_MSFontService,sans-serif" font-size="844.8" transform="translate(-193 -182)">(</text><path fill="#393C45" fill-rule="evenodd" d="M1182 834c23 0 41 4 54 11 12 7 23 20 31 37 8 18 15 46 22 85h5l51-70c12-15 23-28 34-37 10-9 20-16 30-20s21-6 35-6c15 0 30 3 45 8l-21 97h-40c-2-13-7-19-17-19l-13 3c-4 2-11 7-18 14a8713 8713 0 0 0-79 95c10 62 19 107 25 134 7 27 14 45 21 53 4 5 9 7 15 7 8 0 15-3 21-9s15-19 25-39l40 19c-17 31-36 55-58 70-22 16-48 23-77 23-18 0-33-2-44-7-10-4-20-12-27-23-8-10-14-25-20-45-6-19-11-45-16-76h-5c-25 36-45 64-60 83-16 19-29 33-39 42-11 10-22 17-32 21-10 3-21 5-35 5a142 142 0 0 1-45-7l21-97h40c0 6 1 11 4 14s7 5 11 5c6 0 10-1 15-4 5-2 11-7 19-14l31-34 63-80a2538 2538 0 0 0-32-145c-5-12-9-19-13-23s-8-6-13-6c-6 0-11 1-16 5-4 3-9 8-14 15l-16 28-40-19c17-32 36-55 58-71 21-15 46-23 74-23Z"/><text x="1182.6" y="1415.3" fill-opacity="0" font-family="Arial,Arial_MSFontService,sans-serif" font-size="456" transform="translate(-193 -182)">𝒙</text><path fill="#393C45" fill-rule="evenodd" d="M1531 640c87 23 153 72 200 148 46 76 70 167 70 274 0 108-24 199-70 275a322 322 0 0 1-200 147l-11-34c69-23 120-68 153-135 34-68 50-153 50-257 0-100-16-184-49-250-34-67-85-111-155-134Z"/><text x="1712.1" y="1560.9" fill-opacity="0" font-family="Arial,Arial_MSFontService,sans-serif" font-size="844.8" transform="translate(-193 -182)">)</text></svg>