<svg xmlns="http://www.w3.org/2000/svg" xml:space="preserve" width="1964" height="1963" overflow="hidden"><path fill="none" stroke="#393C45" stroke-width="116.6" d="M970 1213a243 243 0 0 1-242-243c0-133 109-242 242-242s243 109 243 242-110 243-243 243Zm546-395c-12-44-31-86-53-125l51-151-116-116-151 51c-41-22-83-40-127-53l-69-141H889l-71 141c-44 13-86 31-125 53l-151-51-116 116 51 151c-22 41-40 83-53 127l-141 69v162l141 71c13 44 31 86 53 125l-51 151 116 116 151-51c41 22 83 41 127 53l71 141h162l71-141c44-12 86-31 125-53l151 51 116-116-51-151c22-41 41-83 53-127l141-71V887l-143-69Z" transform="matrix(1 0 0 1.00052 12 11)"/></svg>